<?xml version="1.0" encoding="utf-8"?>
<!-- Generator: Adobe Illustrator 21.0.0, SVG Export Plug-In . SVG Version: 6.00 Build 0)  -->
<svg version="1.1" id="Layer_5" xmlns="http://www.w3.org/2000/svg" xmlns:xlink="http://www.w3.org/1999/xlink" x="0px" y="0px"
	 viewBox="0 0 512 512" style="enable-background:new 0 0 512 512;" xml:space="preserve">
<style type="text/css">
	.st0{fill:#228B22;}
</style>
<g>
	<g>
		<path class="st0" d="M434.3,176.6c-2.3,0-4.2,1.9-4.2,4.2v21h-21c-2.3,0-4.2,1.9-4.2,4.2c0,2.3,1.9,4.2,4.2,4.2h25.2
			c2.3,0,4.2-1.9,4.2-4.2v-25.1C438.5,178.4,436.6,176.6,434.3,176.6z M241.2,147.2c0-16.2-13.2-29.3-29.4-29.3
			c-16.2,0-29.4,13.2-29.4,29.3c0,16.2,13.2,29.3,29.4,29.3C228,176.6,241.2,163.4,241.2,147.2z M211.8,168.2c-11.6,0-21-9.4-21-21
			c0-11.6,9.4-21,21-21c11.6,0,21,9.4,21,21C232.8,158.8,223.4,168.2,211.8,168.2z M491.6,267.9l-26.1-58.7l-1.1-2.4l1.7-2
			c9.2-11,14.3-25,14.3-39.4c0.1-26.5-7.2-52.3-21.1-74.8c-13.9-22.5-33.8-40.6-57.5-52.3l-24.3-12.2c-0.6-0.3-1.2-0.4-1.9-0.4
			c-1.4,0-2.6,0.7-3.4,1.8l-3.5,4.9l-1.3,1.7h-63.1v-21c0-2.3-1.9-4.2-4.2-4.2h-83.9c-2.3,0-4.2,1.9-4.2,4.2v37.7h-17
			c-2.1,0-3.8,1.5-4.1,3.5l-5.7,34l-0.3,2.1l-1.9,1c-1.8,1-3.6,2-5.2,3l-1.8,1.2l-2-0.7l-32.3-12.1c-0.5-0.2-1-0.3-1.5-0.3
			c-1.5,0-2.9,0.8-3.6,2.1l-8.5,14.6l-1.2,2.1h-2.4c-0.4,0-0.8-0.1-1.1-0.1h-54V67.3l2.8-1c9.7-3.4,15.4-13.2,13.7-23.3
			c-1.7-10.1-10.4-17.4-20.7-17.4C55,25.6,46.3,32.9,44.6,43c-1.7,10.1,4,19.9,13.7,23.3l2.8,1v38c0,2.3,1.9,4.2,4.2,4.2h55.6
			l-1.3,5.2c-0.4,1.5,0.1,3.1,1.4,4.1l26.6,21.9l1.5,1.3v2c0,0.7,0,1.4-0.1,2.2l-0.3,3.8l-3.8,0.1l-81,1.2l-3,0l-1-2.8
			c-3-8.3-10.9-13.9-19.7-13.9c-0.5,0-1,0-1.5,0.1c-9.4,0.7-17.2,7.6-19,16.7c-1.9,9.2,2.7,18.6,11,22.8c3,1.5,6.3,2.3,9.6,2.3
			c8.9,0,16.8-5.6,19.7-14l1-2.8l2.9,0l66-1l11.9-0.2l-9.2,7.6l-11.5,9.5c-1.6,1.3-2,3.6-1,5.3l15.7,27.1l0.6,1l0,1.1l0.3,37.7
			l0,4.2H90.7c-0.2,0-0.3,0.1-0.5,0.1l-3.9,1.2l-1.3-3.9c-2.9-8.5-10.9-14.2-19.8-14.2c-1.1,0-2.3,0.1-3.4,0.3
			c-10.2,1.7-17.5,10.4-17.5,20.7c0,10.3,7.4,19,17.5,20.7c1.1,0.2,2.3,0.3,3.4,0.3c9,0,16.9-5.7,19.8-14.2l1.3-3.9l3.9,1.2
			c0.2,0,0.3,0.1,0.5,0.1h50.1c1.1,0,2.2-0.5,3-1.2c0.8-0.8,1.2-1.9,1.2-3l-0.4-42.5l0-2.9l2.7-1l26.8-10.1l2-0.7l1.8,1.1
			c1.7,1.1,3.4,2.1,5.2,3l1.9,1l0.3,2.1l5.7,34c0.3,2,2.1,3.5,4.1,3.5h8.6v50.3h-29.4c-2.3,0-4.2,1.9-4.2,4.2v124l-1.2,1.2l-73,73
			c-1.2,1.2-1.6,3-0.9,4.6c0.7,1.6,2.2,2.6,3.9,2.6h268.4c1.7,0,3.2-1,3.9-2.6c0.7-1.6,0.3-3.4-0.9-4.6l-56.3-56.2l-1.2-1.2v-47.4
			l0.6-1l18.8-31.3l2.2-3.6l3.6,2.2c42.4,25.6,52.3,28.3,54.5,28.3h50.3c2.3,0,4.2-1.9,4.2-4.2v-48.6l1.2-1.2l14.3-14.3
			c0.8-0.8,1.2-1.9,1.2-3v-29.3h16.4c4.3,0,8.2-2.1,10.6-5.7C493,276.2,493.3,271.8,491.6,267.9z M52.7,46.6
			c0-6.9,5.6-12.6,12.6-12.6c6.9,0,12.6,5.6,12.6,12.6s-5.6,12.6-12.6,12.6C58.3,59.2,52.7,53.5,52.7,46.6z M44.2,167.4l-0.1,0
			l-0.1,0c-1.3,0.4-2.5,0.6-3.9,0.6c-5.5,0-10.3-3.5-12-8.7c-1-3.2-0.7-6.6,0.8-9.5c1.5-3,4.2-5.3,7.4-6.3l0.1,0l0.1,0
			c1-0.3,2.1-0.4,3.1-0.4c5.5,0,10.3,3.5,12,8.7C53.6,158.1,50.4,165,44.2,167.4z M65.3,268.8c-6.9,0-12.6-5.6-12.6-12.6
			c0-6.9,5.6-12.6,12.6-12.6c6.9,0,12.6,5.6,12.6,12.6C77.8,263.1,72.2,268.8,65.3,268.8z M220.4,17.3h75.5v21
			c0,2.3,1.9,4.2,4.2,4.2h61.3l-4.7,6.6l-26.5,37c-0.5,0.7-0.8,1.6-0.8,2.4l0,4.2h-37.7l-1.2-2.1l-3.6-6.1c-0.7-1.3-2.1-2.1-3.6-2.1
			c-0.5,0-1,0.1-1.5,0.3l-32.3,12.1l-2,0.7l-1.8-1.2c-1.7-1.1-3.4-2.1-5.2-3l-1.9-1l-0.3-2.1l-5.7-34c-0.3-2-2.1-3.5-4.1-3.5h-8.2
			V17.3z M358,252l-20.2,8.1l-22.5,9c-1.6,0.6-2.6,2.2-2.6,3.9v21H212v-50.3h16.6c2.1,0,3.8-1.5,4.1-3.5l5.7-34l0.3-2.1l1.9-1
			c1.8-0.9,3.5-1.9,5.2-3l1.8-1.2l2,0.7l32.3,12.1c0.5,0.2,1,0.3,1.5,0.3c1.5,0,2.9-0.8,3.6-2.1l3.6-6.1l1.2-2.1h41.7
			c0.2,0,0.5-0.1,0.7-0.2l2.9-1l1.8,2.4l15,19.9l0.8,1.1v19.6h-33.6v8.4H358z M272,359.8l31.1,31.1l1.2,1.2v10.8h-58.7V302.3h25.2
			v54.5C270.8,357.9,271.2,359,272,359.8z M302.8,175.6l-20.3-16.8l-9-7.4h56v41.9h-32.9l3.6-6.3l3.5-6.1
			C304.7,179.1,304.3,176.9,302.8,175.6z M303.7,113.5l-3.5-6.1l-3.6-6.3h32.9V143h-56l9-7.4l20.3-16.8
			C304.3,117.5,304.7,115.3,303.7,113.5z M198.6,235.2l-0.6-3.5l-5.2-31.3c-0.2-1.4-1.2-2.6-2.5-3.2c-3.9-1.7-7.7-3.9-11.1-6.5
			c-0.7-0.5-1.6-0.8-2.5-0.8c-0.5,0-1,0.1-1.5,0.3l-29.8,11.2l-3.3,1.2l-1.8-3.1l-9.7-16.8l-1.8-3.1l2.7-2.3l24.4-20
			c0,0,0,0,0.1-0.1l0.1-0.2l0.2-0.2c0.1-0.1,0.1-0.1,0.2-0.2l0.1-0.1l0.1-0.1c0.3-0.3,0.6-0.7,0.7-1.1l0.1-0.1
			c0.1-0.4,0.2-0.8,0.2-1.2l0-0.5l0,0c0-0.1,0-0.3,0-0.4c-0.5-4.2-0.5-8.4,0-12.6c0.2-1.4-0.4-2.8-1.5-3.7l-24.5-20.2l-2.7-2.3
			l1.8-3.1l9.7-16.8l1.8-3.1l3.3,1.2l29.8,11.2c0.5,0.2,1,0.3,1.5,0.3c0.9,0,1.8-0.3,2.5-0.8c3.4-2.6,7.1-4.7,11-6.4
			c1.3-0.6,2.3-1.8,2.5-3.2l5.2-31.3l0.6-3.5H225l0.6,3.5l5.2,31.3c0.2,1.4,1.2,2.6,2.5,3.2c3.9,1.7,7.7,3.9,11.1,6.5
			c0.7,0.5,1.6,0.8,2.5,0.8c0.5,0,1-0.1,1.5-0.3L278.2,93l3.3-1.2l1.8,3.1l9.7,16.8l1.8,3.1l-2.7,2.3l-24.5,20.2
			c-1.1,0.9-1.7,2.3-1.5,3.7c0.6,4.2,0.6,8.6,0,12.8c-0.2,1.4,0.4,2.8,1.5,3.7l24.5,20.2l2.7,2.3l-1.8,3.1l-9.7,16.8l-1.8,3.1
			l-3.3-1.2l-29.8-11.2c-0.5-0.2-1-0.3-1.5-0.3c-0.9,0-1.8,0.3-2.5,0.8c-3.4,2.6-7.1,4.7-11,6.4c-1.3,0.6-2.3,1.8-2.5,3.2l-5.2,31.3
			l-0.6,3.5H198.6z M180.8,495.1h-71.8l7.2-7.2l61.2-61.1c0.8-0.8,1.2-1.9,1.2-3V302.3h58.7v128.4l-1,1.2L219.4,451l-7.3,8.4v-48.1
			h-8.4V469l-1,1.2L182,493.7L180.8,495.1z M270.8,495.1h-78.9l6.1-7l14.7-16.8l1.3-1.4h0l30.6-35c0.7-0.8,1-1.7,1-2.8v-21h25.2
			V495.1z M349.9,488l7.2,7.2h-77.9v-83.8h25.2v29.3c0,1.1,0.4,2.2,1.2,3L349.9,488z M324.9,354.8L310.4,379l-2.8,4.6l-3.8-3.8
			l-23.5-23.5l-1.2-1.2v-52.8h33.6V340c0,1.5,0.7,2.8,2,3.6c2.5,1.6,4.7,2.9,7.1,4.4l1.8,1.1l3.5,2.2L324.9,354.8z M459.5,277.1
			c-2.3,0-4.2,1.9-4.2,4.2v29.3h-5.8c-13.9,0-27.5-5.7-37.4-15.5c-0.8-0.7-1.8-1.2-2.9-1.2c-1.1,0-2.2,0.4-3,1.2
			c-1.6,1.6-1.6,4.2-0.1,5.9c9.2,9.2,21.4,15.4,34.4,17.2l8.3,1.2l-5.9,5.9l-3.2,3.2c-0.8,0.8-1.2,1.9-1.2,3v46.1l-4.2,0l-41.1,0
			l-0.9,0l-0.8-0.4c-19.3-8.9-38.2-19.3-56.1-30.9l-0.4-0.3c-3.9-2.4-7.9-4.8-11.8-7.3l-2-1.2v-61.9l2.6-1.1l36.7-14.6
			c1.6-0.6,2.6-2.2,2.6-3.9v-33.5c0-0.9-0.3-1.8-0.8-2.5l-23.5-31.3l-0.8-1.1V89.9l0.8-1.1l36.2-50.7l2.1-2.9l3.2,1.6l17.9,9
			c45.8,22.7,74.2,68.5,74,119.7c0,14-5.6,27.6-15.6,37.5c-1.2,1.2-1.6,3.1-0.9,4.7l28.3,63.7l2.6,5.9H459.5z M212,344.2h-8.4v8.4
			h8.4V344.2z M212,377.7h-8.4v8.4h8.4V377.7z M254,252h8.4v-8.4H254V252z M287.5,252h8.4v-8.4h-8.4V252z M363,117.9h8.4V92.7H363
			V117.9z M363,151.4h8.4V143H363V151.4z M363,184.9h8.4v-8.4H363V184.9z"/>
	</g>
</g>
</svg>
